<svg xmlns="http://www.w3.org/2000/svg" viewBox="0 0 170.08 96.38"><defs><style>.cls-1{fill:#999;}.cls-2{fill:#efe5a3;}.cls-2,.cls-3,.cls-4{fill-rule:evenodd;}.cls-3{fill:#a1dda9;}.cls-4{fill:#f19d97;}</style></defs><title>InVID-logo</title><g id="Calque_2" data-name="Calque 2"><g id="Layer_2" data-name="Layer 2"><path class="cls-1" d="M0,.53H10.32v45.9H0Z"/><path class="cls-1" d="M20.58,12.78a55.34,55.34,0,0,1,6.48-1.36,53.35,53.35,0,0,1,8.34-.63A20.31,20.31,0,0,1,42.78,12a11.11,11.11,0,0,1,4.67,3.28,12.81,12.81,0,0,1,2.45,5,26.81,26.81,0,0,1,.73,6.49V46.43H40.76V28q0-4.77-1.26-6.76t-4.7-2q-1.06,0-2.25.1t-2.12.23V46.43H20.58Z"/><path d="M74.26,46.43q-2.74-5.78-5.4-12T63.8,22.12Q61.4,16,59.39,10.47T55.92.53H67.3q1.29,4,2.86,8.58t3.21,9.16L76.51,27q1.5,4.18,2.87,7.22,1.29-3,2.83-7.2t3.17-8.75Q87,13.73,88.58,9.13T91.45.53h11q-1.54,4.39-3.55,9.95T94.5,22.13q-2.38,6.1-5,12.32t-5.37,12Z"/><path d="M108.66.53H119v45.9H108.66Z"/><path d="M170.07,23.45a26.87,26.87,0,0,1-1.85,10.4A19.26,19.26,0,0,1,163,41.2a22.42,22.42,0,0,1-8.31,4.37,38.49,38.49,0,0,1-11,1.46q-2.78,0-6.49-.23a53.08,53.08,0,0,1-7.28-1V1.13a61,61,0,0,1,7.45-.89Q141.21,0,144,0a40.16,40.16,0,0,1,10.69,1.32,21.88,21.88,0,0,1,8.24,4.17,18.55,18.55,0,0,1,5.29,7.29A27.65,27.65,0,0,1,170.07,23.45ZM140.22,38q.73.07,1.69.1t2.28,0q7.74,0,11.48-3.91t3.74-10.8q0-7.22-3.57-10.93T144.52,8.81q-1.06,0-2.18,0a21.07,21.07,0,0,0-2.12.17Z"/><path class="cls-2" d="M61.39,51.93c2.88-1.81,49.17,18.88,49.17,22.2,0,3.5-46.67,23.39-49.17,22.2C59.15,95.25,58.7,53.62,61.39,51.93Z"/><path class="cls-3" d="M120.91,51.78C123.79,50,170.08,70.66,170.08,74c0,3.5-46.67,23.39-49.17,22.2C118.67,95.09,118.22,53.47,120.91,51.78Z"/><path class="cls-4" d="M1.88,51.93C4.76,50.13,51,70.81,51,74.13c0,3.5-46.67,23.39-49.17,22.2C-.37,95.25-.81,53.62,1.88,51.93Z"/></g></g></svg>