<?xml version="1.0" encoding="UTF-8" standalone="no"?>
<!-- Created with Inkscape (http://www.inkscape.org/) -->
<svg
   xmlns:dc="http://purl.org/dc/elements/1.1/"
   xmlns:cc="http://web.resource.org/cc/"
   xmlns:rdf="http://www.w3.org/1999/02/22-rdf-syntax-ns#"
   xmlns:svg="http://www.w3.org/2000/svg"
   xmlns="http://www.w3.org/2000/svg"
   xmlns:sodipodi="http://sodipodi.sourceforge.net/DTD/sodipodi-0.dtd"
   xmlns:inkscape="http://www.inkscape.org/namespaces/inkscape"
   width="354.09"
   height="354.35999"
   id="svg2"
   sodipodi:version="0.32"
   inkscape:version="0.44.1"
   sodipodi:docbase="/Users/martijn/Pictures"
   sodipodi:docname="copyright.svg"
   version="1.0">
  <defs
     id="defs4" />
  <sodipodi:namedview
     id="base"
     pagecolor="#ffffff"
     bordercolor="#666666"
     borderopacity="1.0"
     gridtolerance="10000"
     guidetolerance="10"
     objecttolerance="10"
     inkscape:pageopacity="0.0"
     inkscape:pageshadow="2"
     inkscape:zoom="1"
     inkscape:cx="375"
     inkscape:cy="163.772"
     inkscape:document-units="px"
     inkscape:current-layer="layer1"
     inkscape:window-width="903"
     inkscape:window-height="728"
     inkscape:window-x="0"
     inkscape:window-y="22"
     showgrid="false"
     showguides="true"
     width="354.09px"
     height="354.36px" />
  <metadata
     id="metadata7">
    <rdf:RDF>
      <cc:Work
         rdf:about="">
        <dc:format>image/svg+xml</dc:format>
        <dc:type
           rdf:resource="http://purl.org/dc/dcmitype/StillImage" />
      </cc:Work>
    </rdf:RDF>
  </metadata>
  <g
     inkscape:label="Layer 1"
     inkscape:groupmode="layer"
     id="layer1">
    <path
       transform="translate(-106,-12)"
       style="font-size:512px;font-style:normal;font-variant:normal;font-weight:normal;font-stretch:normal;text-align:start;line-height:100%;writing-mode:lr-tb;text-anchor:start;font-family:Times"
       d="M 125.5,189.3164 C 125.49996,232.64986 140.83328,269.64982 171.5,300.3164 C 202.16655,330.9831 239.16652,346.31641 282.5,346.3164 C 325.8331,346.31641 362.83306,330.9831 393.5,300.3164 C 424.16633,269.64982 439.49965,232.64986 439.5,189.3164 C 439.49965,145.98328 424.16633,108.98332 393.5,78.316401 C 362.83306,47.650046 325.8331,32.316728 282.5,32.316401 C 239.16652,32.316728 202.16655,47.650046 171.5,78.316401 C 140.83328,108.98332 125.49996,145.98328 125.5,189.3164 M 106.5,189.3164 C 106.49998,140.64995 123.66663,99.149995 158,64.816401 C 192.33323,30.483397 233.83319,13.316747 282.5,13.316401 C 331.16643,13.316747 372.66638,30.483397 407,64.816401 C 441.33298,99.149995 458.49963,140.64995 458.5,189.3164 C 458.49963,237.98319 441.33298,279.48315 407,313.8164 C 372.66638,348.14975 331.16643,365.3164 282.5,365.3164 C 233.83319,365.3164 192.33323,348.14975 158,313.8164 C 123.66663,279.48315 106.49998,237.98319 106.5,189.3164 M 177,184.5664 C 176.99991,152.23328 186.66657,125.7333 206,105.0664 C 225.3332,84.233343 249.58317,73.816687 278.75,73.816401 C 286.41647,73.816687 293.91646,74.733353 301.25,76.566401 C 308.58311,78.400016 315.58311,81.233346 322.25,85.066401 L 330.5,89.816401 C 332.33309,90.81667 333.83309,91.566669 335,92.066401 C 336.33309,92.566668 337.74975,92.816668 339.25,92.816401 C 342.91641,92.816668 345.41641,91.650002 346.75,89.316401 C 348.24974,86.98334 349.74974,82.400012 351.25,75.566401 L 361.75,75.566401 L 363.75,161.5664 L 351.75,161.5664 C 346.41641,135.56663 337.58309,116.39998 325.25,104.0664 C 312.91644,91.733336 298.24979,85.566675 281.25,85.566401 C 263.74983,85.566675 249.08317,93.733334 237.25,110.0664 C 225.41653,126.2333 219.49987,151.56661 219.5,186.0664 C 219.49987,208.56655 224.49987,229.81653 234.5,249.8164 C 244.66651,269.64982 262.24983,279.56648 287.25,279.5664 C 305.08312,279.56648 320.66644,273.64982 334,261.8164 C 341.66642,254.98317 349.41641,245.06652 357.25,232.0664 L 367.75,238.0664 C 359.74973,252.56651 350.99974,264.0665 341.5,272.5664 C 324.16643,288.23314 303.49979,296.06646 279.5,296.0664 C 251.16651,296.06646 226.99986,285.64981 207,264.8164 C 186.9999,243.98318 176.99991,217.23321 177,184.5664"
       id="flowRoot8747" />
  </g>
</svg>
