<svg xmlns="http://www.w3.org/2000/svg" viewBox="0 0 119.1 83.82"><defs><style>.cls-1{fill:#999;}.cls-2{fill:#efe5a3;}.cls-2,.cls-3,.cls-4{fill-rule:evenodd;}.cls-3{fill:#a1dda9;}.cls-4{fill:#f19d97;}.cls-5{font-size:12px;font-family:RobotoMono-Bold, Roboto Mono;font-weight:700;}</style></defs><title>videoveritas</title><g id="Calque_2" data-name="Calque 2"><g id="Layer_2" data-name="Layer 2"><path class="cls-1" d="M0,.38H7.22V33.59H0Z"/><path class="cls-1" d="M14.4,9.25a37.63,37.63,0,0,1,4.54-1,36.15,36.15,0,0,1,5.83-.45,13.79,13.79,0,0,1,5.16.84A7.78,7.78,0,0,1,33.2,11a9.4,9.4,0,0,1,1.71,3.64,20,20,0,0,1,.51,4.7V33.59h-6.9V20.22a9.92,9.92,0,0,0-.88-4.89,3.54,3.54,0,0,0-3.29-1.44q-.74,0-1.57.07t-1.48.17V33.59H14.4Z"/><path d="M52,33.59Q50,29.41,48.19,24.91T44.65,16Q43,11.6,41.56,7.57T39.13.38h8q.9,2.88,2,6.21t2.25,6.63l2.19,6.33q1,3,2,5.23.91-2.19,2-5.21t2.22-6.33Q60.89,9.93,62,6.61T64,.38h7.69q-1.08,3.18-2.48,7.2T66.13,16q-1.67,4.41-3.52,8.91t-3.76,8.67Z"/><path d="M76,.38h7.22V33.59H76Z"/><path d="M119,17a20,20,0,0,1-1.3,7.52A13.93,13.93,0,0,1,114,29.8,15.52,15.52,0,0,1,108.22,33,26.11,26.11,0,0,1,100.54,34q-1.95,0-4.54-.17a36,36,0,0,1-5.09-.7V.81A41.33,41.33,0,0,1,96.11.17Q98.82,0,100.77,0a27.24,27.24,0,0,1,7.48,1A15.13,15.13,0,0,1,114,4a13.41,13.41,0,0,1,3.7,5.27A20.6,20.6,0,0,1,119,17ZM98.13,27.5q.51,0,1.18.07l1.6,0q5.42,0,8-2.83T111.56,17q0-5.22-2.5-7.91t-7.92-2.68l-1.53,0a14.28,14.28,0,0,0-1.48.12Z"/><path class="cls-2" d="M43,37.52c2-1,34.41,10,34.41,11.73S44.71,61.6,43,61C41.39,60.4,41.08,38.41,43,37.52Z"/><path class="cls-3" d="M84.61,37.43c2-1,34.41,10,34.41,11.73S86.36,61.52,84.61,60.89C83,60.32,82.73,38.32,84.61,37.43Z"/><path class="cls-4" d="M1.31,37.52c2-1,34.41,10,34.41,11.73S3.06,61.6,1.31,61C-.26,60.4-.57,38.41,1.31,37.52Z"/><text class="cls-5" transform="translate(0.35 77.27)">In video veritas</text></g></g></svg>